<svg height="242.666992pt" viewBox="0 0 167.0869141 242.6669922" width="167.086914pt" xmlns="http://www.w3.org/2000/svg"><path d="m166.8369141 235.5478516c0 3.7773438-3.0869141 6.8691406-6.8710938 6.8691406h-152.8549805c-3.7749023 0-6.8608398-3.0917969-6.8608398-6.8691406v-228.4277344c0-3.7773438 3.0859375-6.8701172 6.8608398-6.8701172h152.8549805c3.7841797 0 6.8710938 3.0927734 6.8710938 6.8701172z" fill="#fff" stroke="#000" stroke-width=".5"/><text font-family="Bitstream Vera Sans" font-size="32" letter-spacing="0" word-spacing="0" x="8.310546" y="27.548409"><tspan font-family="Arial" x="8.310546" y="27.548409">2</tspan></text><path d="m50.291466 22.698228s2.375-1.9 2.375-4.534c0-1.542-1.369-4.102-4.534-4.102s-4.534 2.561-4.534 4.102c0 2.634 2.375 4.534 2.375 4.534-2.638-2.055-7.341-.652-7.341 3.455 0 2.056 1.68 4.318 4.318 4.318 3.165 0 4.534-3.455 4.534-3.455s.402 3.938-1.943 6.046h5.182c-2.345-2.107-1.943-6.046-1.943-6.046s1.369 3.455 4.534 3.455c2.639 0 4.318-2.263 4.318-4.318 0-4.107-4.703-5.51-7.341-3.455z" transform="matrix(1.4856506 0 0 1.4856506 -54.024661 10.018072)"/><text font-family="Bitstream Vera Sans" font-size="32" letter-spacing="0" transform="scale(-1)" word-spacing="0" x="-158.86395" y="-214.4666"><tspan font-family="Arial" x="-158.86395" y="-214.4666">2</tspan></text><path d="m50.291466 22.698228s2.375-1.9 2.375-4.534c0-1.542-1.369-4.102-4.534-4.102s-4.534 2.561-4.534 4.102c0 2.634 2.375 4.534 2.375 4.534-2.638-2.055-7.341-.652-7.341 3.455 0 2.056 1.68 4.318 4.318 4.318 3.165 0 4.534-3.455 4.534-3.455s.402 3.938-1.943 6.046h5.182c-2.345-2.107-1.943-6.046-1.943-6.046s1.369 3.455 4.534 3.455c2.639 0 4.318-2.263 4.318-4.318 0-4.107-4.703-5.51-7.341-3.455z" transform="matrix(-1.4856506 0 0 -1.4856506 221.19916 232.46182)"/><path d="m50.291466 22.698228s2.375-1.9 2.375-4.534c0-1.542-1.369-4.102-4.534-4.102s-4.534 2.561-4.534 4.102c0 2.634 2.375 4.534 2.375 4.534-2.638-2.055-7.341-.652-7.341 3.455 0 2.056 1.68 4.318 4.318 4.318 3.165 0 4.534-3.455 4.534-3.455s.402 3.938-1.943 6.046h5.182c-2.345-2.107-1.943-6.046-1.943-6.046s1.369 3.455 4.534 3.455c2.639 0 4.318-2.263 4.318-4.318 0-4.107-4.703-5.51-7.341-3.455z" transform="matrix(2.5125778 0 0 2.5125778 -36.788386 -1.531116)"/><path d="m50.291466 22.698228s2.375-1.9 2.375-4.534c0-1.542-1.369-4.102-4.534-4.102s-4.534 2.561-4.534 4.102c0 2.634 2.375 4.534 2.375 4.534-2.638-2.055-7.341-.652-7.341 3.455 0 2.056 1.68 4.318 4.318 4.318 3.165 0 4.534-3.455 4.534-3.455s.402 3.938-1.943 6.046h5.182c-2.345-2.107-1.943-6.046-1.943-6.046s1.369 3.455 4.534 3.455c2.639 0 4.318-2.263 4.318-4.318 0-4.107-4.703-5.51-7.341-3.455z" transform="matrix(-2.5125778 0 0 -2.5125778 205.12954 245.27515)"/></svg>